<svg width="1254" height="347" viewBox="0 0 1254 347" fill="none" xmlns="http://www.w3.org/2000/svg">
<circle cx="64" cy="231" r="50" fill="#FAC300"/>
<path d="M53.2531 234C53.2531 229.413 54.1331 225.8 55.8931 223.16C57.6798 220.52 60.5465 219.2 64.4931 219.2C68.4398 219.2 71.2931 220.52 73.0531 223.16C74.8398 225.8 75.7331 229.413 75.7331 234C75.7331 238.64 74.8398 242.28 73.0531 244.92C71.2931 247.56 68.4398 248.88 64.4931 248.88C60.5465 248.88 57.6798 247.56 55.8931 244.92C54.1331 242.28 53.2531 238.64 53.2531 234ZM69.0131 234C69.0131 231.307 68.7198 229.24 68.1331 227.8C67.5465 226.333 66.3331 225.6 64.4931 225.6C62.6531 225.6 61.4398 226.333 60.8531 227.8C60.2665 229.24 59.9731 231.307 59.9731 234C59.9731 235.813 60.0798 237.32 60.2931 238.52C60.5065 239.693 60.9331 240.653 61.5731 241.4C62.2398 242.12 63.2131 242.48 64.4931 242.48C65.7731 242.48 66.7331 242.12 67.3731 241.4C68.0398 240.653 68.4798 239.693 68.6931 238.52C68.9065 237.32 69.0131 235.813 69.0131 234Z" fill="black"/>
<circle cx="907" cy="231" r="50" fill="#F5F5F5"/>
<path d="M897.431 228.04C897.537 225.187 898.471 222.987 900.231 221.44C901.991 219.893 904.377 219.12 907.391 219.12C909.391 219.12 911.097 219.467 912.511 220.16C913.951 220.853 915.031 221.8 915.751 223C916.497 224.2 916.871 225.547 916.871 227.04C916.871 228.8 916.431 230.24 915.551 231.36C914.671 232.453 913.644 233.2 912.471 233.6V233.76C913.991 234.267 915.191 235.107 916.071 236.28C916.951 237.453 917.391 238.96 917.391 240.8C917.391 242.453 917.004 243.92 916.231 245.2C915.484 246.453 914.377 247.44 912.911 248.16C911.471 248.88 909.751 249.24 907.751 249.24C904.551 249.24 901.991 248.453 900.071 246.88C898.177 245.307 897.177 242.933 897.071 239.76H903.711C903.737 240.933 904.071 241.867 904.711 242.56C905.351 243.227 906.284 243.56 907.511 243.56C908.551 243.56 909.351 243.267 909.911 242.68C910.497 242.067 910.791 241.267 910.791 240.28C910.791 239 910.377 238.08 909.551 237.52C908.751 236.933 907.457 236.64 905.671 236.64H904.391V231.08H905.671C907.031 231.08 908.124 230.853 908.951 230.4C909.804 229.92 910.231 229.08 910.231 227.88C910.231 226.92 909.964 226.173 909.431 225.64C908.897 225.107 908.164 224.84 907.231 224.84C906.217 224.84 905.457 225.147 904.951 225.76C904.471 226.373 904.191 227.133 904.111 228.04H897.431Z" fill="black"/>
<circle cx="626" cy="231" r="50" fill="#F5F5F5"/>
<path d="M616.634 243.52C617.541 242.8 617.954 242.467 617.874 242.52C620.488 240.36 622.541 238.587 624.034 237.2C625.554 235.813 626.834 234.36 627.874 232.84C628.914 231.32 629.434 229.84 629.434 228.4C629.434 227.307 629.181 226.453 628.674 225.84C628.168 225.227 627.408 224.92 626.394 224.92C625.381 224.92 624.581 225.307 623.994 226.08C623.434 226.827 623.154 227.893 623.154 229.28H616.554C616.608 227.013 617.088 225.12 617.994 223.6C618.928 222.08 620.141 220.96 621.634 220.24C623.154 219.52 624.834 219.16 626.674 219.16C629.848 219.16 632.234 219.973 633.834 221.6C635.461 223.227 636.274 225.347 636.274 227.96C636.274 230.813 635.301 233.467 633.354 235.92C631.408 238.347 628.928 240.72 625.914 243.04H636.714V248.6H616.634V243.52Z" fill="black"/>
<circle cx="1188" cy="231" r="50" fill="#F5F5F5"/>
<path d="M1176.92 243.8V238.28L1189.56 220.2H1197.2V237.88H1200.48V243.8H1197.2V249H1190.36V243.8H1176.92ZM1190.84 227.72L1184.12 237.88H1190.84V227.72Z" fill="black"/>
<rect x="368" y="217" width="232" height="32" fill="#F5F5F5"/>
<rect x="85" y="217" width="232" height="32" fill="#FAC300"/>
<rect x="943" y="217" width="232" height="32" fill="#F5F5F5"/>
<rect x="651" y="217" width="232" height="32" fill="#F5F5F5"/>
<circle cx="345" cy="231" r="50" fill="#FAC300"/>
<path d="M339.06 226.16V219.8H350.14V249H343.02V226.16H339.06Z" fill="black"/>
<path d="M29.3784 313.52H24.1384L23.2984 316H19.7184L24.7984 301.96H28.7584L33.8384 316H30.2184L29.3784 313.52ZM28.4984 310.88L26.7584 305.74L25.0384 310.88H28.4984ZM46.4045 304.84V316H42.9845V314.48C42.6379 314.973 42.1645 315.373 41.5645 315.68C40.9779 315.973 40.3245 316.12 39.6045 316.12C38.7512 316.12 37.9979 315.933 37.3445 315.56C36.6912 315.173 36.1845 314.62 35.8245 313.9C35.4645 313.18 35.2845 312.333 35.2845 311.36V304.84H38.6845V310.9C38.6845 311.647 38.8779 312.227 39.2645 312.64C39.6512 313.053 40.1712 313.26 40.8245 313.26C41.4912 313.26 42.0179 313.053 42.4045 312.64C42.7912 312.227 42.9845 311.647 42.9845 310.9V304.84H46.4045ZM53.1011 304.68C53.8878 304.68 54.5744 304.84 55.1611 305.16C55.7611 305.48 56.2211 305.9 56.5411 306.42V304.84H59.9611V315.98C59.9611 317.007 59.7544 317.933 59.3411 318.76C58.9411 319.6 58.3211 320.267 57.4811 320.76C56.6544 321.253 55.6211 321.5 54.3811 321.5C52.7278 321.5 51.3878 321.107 50.3611 320.32C49.3344 319.547 48.7478 318.493 48.6011 317.16H51.9811C52.0878 317.587 52.3411 317.92 52.7411 318.16C53.1411 318.413 53.6344 318.54 54.2211 318.54C54.9278 318.54 55.4878 318.333 55.9011 317.92C56.3278 317.52 56.5411 316.873 56.5411 315.98V314.4C56.2078 314.92 55.7478 315.347 55.1611 315.68C54.5744 316 53.8878 316.16 53.1011 316.16C52.1811 316.16 51.3478 315.927 50.6011 315.46C49.8544 314.98 49.2611 314.307 48.8211 313.44C48.3944 312.56 48.1811 311.547 48.1811 310.4C48.1811 309.253 48.3944 308.247 48.8211 307.38C49.2611 306.513 49.8544 305.847 50.6011 305.38C51.3478 304.913 52.1811 304.68 53.1011 304.68ZM56.5411 310.42C56.5411 309.567 56.3011 308.893 55.8211 308.4C55.3544 307.907 54.7811 307.66 54.1011 307.66C53.4211 307.66 52.8411 307.907 52.3611 308.4C51.8944 308.88 51.6611 309.547 51.6611 310.4C51.6611 311.253 51.8944 311.933 52.3611 312.44C52.8411 312.933 53.4211 313.18 54.1011 313.18C54.7811 313.18 55.3544 312.933 55.8211 312.44C56.3011 311.947 56.5411 311.273 56.5411 310.42ZM65.9736 304.58V301.4H71.5136V316H67.9536V304.58H65.9736ZM73.8531 308.5C73.8531 306.207 74.2931 304.4 75.1731 303.08C76.0665 301.76 77.4998 301.1 79.4731 301.1C81.4465 301.1 82.8731 301.76 83.7531 303.08C84.6465 304.4 85.0931 306.207 85.0931 308.5C85.0931 310.82 84.6465 312.64 83.7531 313.96C82.8731 315.28 81.4465 315.94 79.4731 315.94C77.4998 315.94 76.0665 315.28 75.1731 313.96C74.2931 312.64 73.8531 310.82 73.8531 308.5ZM81.7331 308.5C81.7331 307.153 81.5865 306.12 81.2931 305.4C80.9998 304.667 80.3931 304.3 79.4731 304.3C78.5531 304.3 77.9465 304.667 77.6531 305.4C77.3598 306.12 77.2131 307.153 77.2131 308.5C77.2131 309.407 77.2665 310.16 77.3731 310.76C77.4798 311.347 77.6931 311.827 78.0131 312.2C78.3465 312.56 78.8331 312.74 79.4731 312.74C80.1131 312.74 80.5931 312.56 80.9131 312.2C81.2465 311.827 81.4665 311.347 81.5731 310.76C81.6798 310.16 81.7331 309.407 81.7331 308.5ZM93.46 313.1V316H91.72C90.48 316 89.5133 315.7 88.82 315.1C88.1267 314.487 87.78 313.493 87.78 312.12V307.68H86.42V304.84H87.78V302.12H91.2V304.84H93.44V307.68H91.2V312.16C91.2 312.493 91.28 312.733 91.44 312.88C91.6 313.027 91.8667 313.1 92.24 313.1H93.46ZM102.225 304.72C103.505 304.72 104.532 305.147 105.305 306C106.078 306.84 106.465 308 106.465 309.48V316H103.065V309.94C103.065 309.193 102.872 308.613 102.485 308.2C102.098 307.787 101.578 307.58 100.925 307.58C100.272 307.58 99.7517 307.787 99.365 308.2C98.9783 308.613 98.785 309.193 98.785 309.94V316H95.365V301.2H98.785V306.34C99.1317 305.847 99.605 305.453 100.205 305.16C100.805 304.867 101.478 304.72 102.225 304.72ZM40.6179 343.26C41.0712 342.9 41.2779 342.733 41.2379 342.76C42.5446 341.68 43.5712 340.793 44.3179 340.1C45.0779 339.407 45.7179 338.68 46.2379 337.92C46.7579 337.16 47.0179 336.42 47.0179 335.7C47.0179 335.153 46.8912 334.727 46.6379 334.42C46.3846 334.113 46.0046 333.96 45.4979 333.96C44.9912 333.96 44.5912 334.153 44.2979 334.54C44.0179 334.913 43.8779 335.447 43.8779 336.14H40.5779C40.6046 335.007 40.8446 334.06 41.2979 333.3C41.7646 332.54 42.3712 331.98 43.1179 331.62C43.8779 331.26 44.7179 331.08 45.6379 331.08C47.2246 331.08 48.4179 331.487 49.2179 332.3C50.0312 333.113 50.4379 334.173 50.4379 335.48C50.4379 336.907 49.9512 338.233 48.9779 339.46C48.0046 340.673 46.7646 341.86 45.2579 343.02H50.6579V345.8H40.6179V343.26ZM52.1637 338.5C52.1637 336.207 52.6037 334.4 53.4837 333.08C54.377 331.76 55.8103 331.1 57.7837 331.1C59.757 331.1 61.1837 331.76 62.0637 333.08C62.957 334.4 63.4037 336.207 63.4037 338.5C63.4037 340.82 62.957 342.64 62.0637 343.96C61.1837 345.28 59.757 345.94 57.7837 345.94C55.8103 345.94 54.377 345.28 53.4837 343.96C52.6037 342.64 52.1637 340.82 52.1637 338.5ZM60.0437 338.5C60.0437 337.153 59.897 336.12 59.6037 335.4C59.3103 334.667 58.7037 334.3 57.7837 334.3C56.8637 334.3 56.257 334.667 55.9637 335.4C55.6703 336.12 55.5237 337.153 55.5237 338.5C55.5237 339.407 55.577 340.16 55.6837 340.76C55.7903 341.347 56.0037 341.827 56.3237 342.2C56.657 342.56 57.1437 342.74 57.7837 342.74C58.4237 342.74 58.9037 342.56 59.2237 342.2C59.557 341.827 59.777 341.347 59.8837 340.76C59.9903 340.16 60.0437 339.407 60.0437 338.5ZM65.0905 343.26C65.5439 342.9 65.7505 342.733 65.7105 342.76C67.0172 341.68 68.0439 340.793 68.7905 340.1C69.5505 339.407 70.1905 338.68 70.7105 337.92C71.2305 337.16 71.4905 336.42 71.4905 335.7C71.4905 335.153 71.3639 334.727 71.1105 334.42C70.8572 334.113 70.4772 333.96 69.9705 333.96C69.4639 333.96 69.0639 334.153 68.7705 334.54C68.4905 334.913 68.3505 335.447 68.3505 336.14H65.0505C65.0772 335.007 65.3172 334.06 65.7705 333.3C66.2372 332.54 66.8439 331.98 67.5905 331.62C68.3505 331.26 69.1905 331.08 70.1105 331.08C71.6972 331.08 72.8905 331.487 73.6905 332.3C74.5039 333.113 74.9105 334.173 74.9105 335.48C74.9105 336.907 74.4239 338.233 73.4505 339.46C72.4772 340.673 71.2372 341.86 69.7305 343.02H75.1305V345.8H65.0905V343.26ZM76.5163 343.26C76.9697 342.9 77.1763 342.733 77.1363 342.76C78.443 341.68 79.4697 340.793 80.2163 340.1C80.9763 339.407 81.6163 338.68 82.1363 337.92C82.6563 337.16 82.9163 336.42 82.9163 335.7C82.9163 335.153 82.7897 334.727 82.5363 334.42C82.283 334.113 81.903 333.96 81.3963 333.96C80.8897 333.96 80.4897 334.153 80.1963 334.54C79.9163 334.913 79.7763 335.447 79.7763 336.14H76.4763C76.503 335.007 76.743 334.06 77.1963 333.3C77.663 332.54 78.2697 331.98 79.0163 331.62C79.7763 331.26 80.6163 331.08 81.5363 331.08C83.123 331.08 84.3163 331.487 85.1163 332.3C85.9297 333.113 86.3363 334.173 86.3363 335.48C86.3363 336.907 85.8497 338.233 84.8763 339.46C83.903 340.673 82.663 341.86 81.1563 343.02H86.5563V345.8H76.5163V343.26Z" fill="white"/>
<path d="M1161.62 301.96V316H1158.2V307.58L1155.06 316H1152.3L1149.14 307.56V316H1145.72V301.96H1149.76L1153.7 311.68L1157.6 301.96H1161.62ZM1163.4 310.4C1163.4 309.253 1163.62 308.247 1164.04 307.38C1164.48 306.513 1165.08 305.847 1165.82 305.38C1166.57 304.913 1167.4 304.68 1168.32 304.68C1169.11 304.68 1169.8 304.84 1170.38 305.16C1170.98 305.48 1171.44 305.9 1171.76 306.42V304.84H1175.18V316H1171.76V314.42C1171.43 314.94 1170.96 315.36 1170.36 315.68C1169.78 316 1169.09 316.16 1168.3 316.16C1167.4 316.16 1166.57 315.927 1165.82 315.46C1165.08 314.98 1164.48 314.307 1164.04 313.44C1163.62 312.56 1163.4 311.547 1163.4 310.4ZM1171.76 310.42C1171.76 309.567 1171.52 308.893 1171.04 308.4C1170.58 307.907 1170 307.66 1169.32 307.66C1168.64 307.66 1168.06 307.907 1167.58 308.4C1167.12 308.88 1166.88 309.547 1166.88 310.4C1166.88 311.253 1167.12 311.933 1167.58 312.44C1168.06 312.933 1168.64 313.18 1169.32 313.18C1170 313.18 1170.58 312.933 1171.04 312.44C1171.52 311.947 1171.76 311.273 1171.76 310.42ZM1189.06 304.84L1182.06 321.3H1178.38L1180.94 315.62L1176.4 304.84H1180.22L1182.8 311.82L1185.36 304.84H1189.06ZM1194.07 313.26C1194.53 312.9 1194.73 312.733 1194.69 312.76C1196 311.68 1197.03 310.793 1197.77 310.1C1198.53 309.407 1199.17 308.68 1199.69 307.92C1200.21 307.16 1200.47 306.42 1200.47 305.7C1200.47 305.153 1200.35 304.727 1200.09 304.42C1199.84 304.113 1199.46 303.96 1198.95 303.96C1198.45 303.96 1198.05 304.153 1197.75 304.54C1197.47 304.913 1197.33 305.447 1197.33 306.14H1194.03C1194.06 305.007 1194.3 304.06 1194.75 303.3C1195.22 302.54 1195.83 301.98 1196.57 301.62C1197.33 301.26 1198.17 301.08 1199.09 301.08C1200.68 301.08 1201.87 301.487 1202.67 302.3C1203.49 303.113 1203.89 304.173 1203.89 305.48C1203.89 306.907 1203.41 308.233 1202.43 309.46C1201.46 310.673 1200.22 311.86 1198.71 313.02H1204.11V315.8H1194.07V313.26ZM1205.26 304.58V301.4H1210.8V316H1207.24V304.58H1205.26ZM1218.02 316.16C1217.04 316.16 1216.18 315.993 1215.42 315.66C1214.66 315.327 1214.06 314.873 1213.62 314.3C1213.18 313.713 1212.93 313.06 1212.88 312.34H1216.26C1216.3 312.727 1216.48 313.04 1216.8 313.28C1217.12 313.52 1217.51 313.64 1217.98 313.64C1218.4 313.64 1218.73 313.56 1218.96 313.4C1219.2 313.227 1219.32 313.007 1219.32 312.74C1219.32 312.42 1219.15 312.187 1218.82 312.04C1218.48 311.88 1217.94 311.707 1217.2 311.52C1216.4 311.333 1215.73 311.14 1215.2 310.94C1214.66 310.727 1214.2 310.4 1213.82 309.96C1213.43 309.507 1213.24 308.9 1213.24 308.14C1213.24 307.5 1213.41 306.92 1213.76 306.4C1214.12 305.867 1214.64 305.447 1215.32 305.14C1216.01 304.833 1216.83 304.68 1217.78 304.68C1219.18 304.68 1220.28 305.027 1221.08 305.72C1221.89 306.413 1222.36 307.333 1222.48 308.48H1219.32C1219.26 308.093 1219.09 307.787 1218.8 307.56C1218.52 307.333 1218.14 307.22 1217.68 307.22C1217.28 307.22 1216.97 307.3 1216.76 307.46C1216.54 307.607 1216.44 307.813 1216.44 308.08C1216.44 308.4 1216.6 308.64 1216.94 308.8C1217.28 308.96 1217.82 309.12 1218.54 309.28C1219.36 309.493 1220.04 309.707 1220.56 309.92C1221.08 310.12 1221.53 310.453 1221.92 310.92C1222.32 311.373 1222.52 311.987 1222.54 312.76C1222.54 313.413 1222.35 314 1221.98 314.52C1221.62 315.027 1221.09 315.427 1220.4 315.72C1219.72 316.013 1218.92 316.16 1218.02 316.16ZM1230.85 313.1V316H1229.11C1227.87 316 1226.9 315.7 1226.21 315.1C1225.52 314.487 1225.17 313.493 1225.17 312.12V307.68H1223.81V304.84H1225.17V302.12H1228.59V304.84H1230.83V307.68H1228.59V312.16C1228.59 312.493 1228.67 312.733 1228.83 312.88C1228.99 313.027 1229.26 313.1 1229.63 313.1H1230.85ZM1164.78 343.26C1165.23 342.9 1165.44 342.733 1165.4 342.76C1166.7 341.68 1167.73 340.793 1168.48 340.1C1169.24 339.407 1169.88 338.68 1170.4 337.92C1170.92 337.16 1171.18 336.42 1171.18 335.7C1171.18 335.153 1171.05 334.727 1170.8 334.42C1170.54 334.113 1170.16 333.96 1169.66 333.96C1169.15 333.96 1168.75 334.153 1168.46 334.54C1168.18 334.913 1168.04 335.447 1168.04 336.14H1164.74C1164.76 335.007 1165 334.06 1165.46 333.3C1165.92 332.54 1166.53 331.98 1167.28 331.62C1168.04 331.26 1168.88 331.08 1169.8 331.08C1171.38 331.08 1172.58 331.487 1173.38 332.3C1174.19 333.113 1174.6 334.173 1174.6 335.48C1174.6 336.907 1174.11 338.233 1173.14 339.46C1172.16 340.673 1170.92 341.86 1169.42 343.02H1174.82V345.8H1164.78V343.26ZM1176.32 338.5C1176.32 336.207 1176.76 334.4 1177.64 333.08C1178.54 331.76 1179.97 331.1 1181.94 331.1C1183.92 331.1 1185.34 331.76 1186.22 333.08C1187.12 334.4 1187.56 336.207 1187.56 338.5C1187.56 340.82 1187.12 342.64 1186.22 343.96C1185.34 345.28 1183.92 345.94 1181.94 345.94C1179.97 345.94 1178.54 345.28 1177.64 343.96C1176.76 342.64 1176.32 340.82 1176.32 338.5ZM1184.2 338.5C1184.2 337.153 1184.06 336.12 1183.76 335.4C1183.47 334.667 1182.86 334.3 1181.94 334.3C1181.02 334.3 1180.42 334.667 1180.12 335.4C1179.83 336.12 1179.68 337.153 1179.68 338.5C1179.68 339.407 1179.74 340.16 1179.84 340.76C1179.95 341.347 1180.16 341.827 1180.48 342.2C1180.82 342.56 1181.3 342.74 1181.94 342.74C1182.58 342.74 1183.06 342.56 1183.38 342.2C1183.72 341.827 1183.94 341.347 1184.04 340.76C1184.15 340.16 1184.2 339.407 1184.2 338.5ZM1189.25 343.26C1189.7 342.9 1189.91 342.733 1189.87 342.76C1191.18 341.68 1192.2 340.793 1192.95 340.1C1193.71 339.407 1194.35 338.68 1194.87 337.92C1195.39 337.16 1195.65 336.42 1195.65 335.7C1195.65 335.153 1195.52 334.727 1195.27 334.42C1195.02 334.113 1194.64 333.96 1194.13 333.96C1193.62 333.96 1193.22 334.153 1192.93 334.54C1192.65 334.913 1192.51 335.447 1192.51 336.14H1189.21C1189.24 335.007 1189.48 334.06 1189.93 333.3C1190.4 332.54 1191 331.98 1191.75 331.62C1192.51 331.26 1193.35 331.08 1194.27 331.08C1195.86 331.08 1197.05 331.487 1197.85 332.3C1198.66 333.113 1199.07 334.173 1199.07 335.48C1199.07 336.907 1198.58 338.233 1197.61 339.46C1196.64 340.673 1195.4 341.86 1193.89 343.02H1199.29V345.8H1189.25V343.26ZM1200.91 335.52C1200.97 334.093 1201.43 332.993 1202.31 332.22C1203.19 331.447 1204.39 331.06 1205.89 331.06C1206.89 331.06 1207.75 331.233 1208.45 331.58C1209.17 331.927 1209.71 332.4 1210.07 333C1210.45 333.6 1210.63 334.273 1210.63 335.02C1210.63 335.9 1210.41 336.62 1209.97 337.18C1209.53 337.727 1209.02 338.1 1208.43 338.3V338.38C1209.19 338.633 1209.79 339.053 1210.23 339.64C1210.67 340.227 1210.89 340.98 1210.89 341.9C1210.89 342.727 1210.7 343.46 1210.31 344.1C1209.94 344.727 1209.39 345.22 1208.65 345.58C1207.93 345.94 1207.07 346.12 1206.07 346.12C1204.47 346.12 1203.19 345.727 1202.23 344.94C1201.29 344.153 1200.79 342.967 1200.73 341.38H1204.05C1204.07 341.967 1204.23 342.433 1204.55 342.78C1204.87 343.113 1205.34 343.28 1205.95 343.28C1206.47 343.28 1206.87 343.133 1207.15 342.84C1207.45 342.533 1207.59 342.133 1207.59 341.64C1207.59 341 1207.39 340.54 1206.97 340.26C1206.57 339.967 1205.93 339.82 1205.03 339.82H1204.39V337.04H1205.03C1205.71 337.04 1206.26 336.927 1206.67 336.7C1207.1 336.46 1207.31 336.04 1207.31 335.44C1207.31 334.96 1207.18 334.587 1206.91 334.32C1206.65 334.053 1206.28 333.92 1205.81 333.92C1205.31 333.92 1204.93 334.073 1204.67 334.38C1204.43 334.687 1204.29 335.067 1204.25 335.52H1200.91Z" fill="white"/>
<path d="M881.064 301.96V316H877.644V307.58L874.504 316H871.744L868.584 307.56V316H865.164V301.96H869.204L873.144 311.68L877.044 301.96H881.064ZM882.843 310.4C882.843 309.253 883.057 308.247 883.483 307.38C883.923 306.513 884.517 305.847 885.263 305.38C886.01 304.913 886.843 304.68 887.763 304.68C888.55 304.68 889.237 304.84 889.823 305.16C890.423 305.48 890.883 305.9 891.203 306.42V304.84H894.623V316H891.203V314.42C890.87 314.94 890.403 315.36 889.803 315.68C889.217 316 888.53 316.16 887.743 316.16C886.837 316.16 886.01 315.927 885.263 315.46C884.517 314.98 883.923 314.307 883.483 313.44C883.057 312.56 882.843 311.547 882.843 310.4ZM891.203 310.42C891.203 309.567 890.963 308.893 890.483 308.4C890.017 307.907 889.443 307.66 888.763 307.66C888.083 307.66 887.503 307.907 887.023 308.4C886.557 308.88 886.323 309.547 886.323 310.4C886.323 311.253 886.557 311.933 887.023 312.44C887.503 312.933 888.083 313.18 888.763 313.18C889.443 313.18 890.017 312.933 890.483 312.44C890.963 311.947 891.203 311.273 891.203 310.42ZM900.517 306.7C900.917 306.087 901.417 305.607 902.017 305.26C902.617 304.9 903.284 304.72 904.017 304.72V308.34H903.077C902.224 308.34 901.584 308.527 901.157 308.9C900.731 309.26 900.517 309.9 900.517 310.82V316H897.097V304.84H900.517V306.7ZM909.19 304.58V301.4H914.73V316H911.17V304.58H909.19ZM920.75 311.72C920.95 312.773 921.563 313.3 922.59 313.3C923.297 313.3 923.797 312.987 924.09 312.36C924.383 311.733 924.53 310.713 924.53 309.3C924.237 309.713 923.837 310.033 923.33 310.26C922.823 310.487 922.257 310.6 921.63 310.6C920.777 310.6 920.017 310.427 919.35 310.08C918.683 309.72 918.157 309.193 917.77 308.5C917.397 307.793 917.21 306.94 917.21 305.94C917.21 304.953 917.41 304.093 917.81 303.36C918.223 302.627 918.803 302.06 919.55 301.66C920.31 301.26 921.203 301.06 922.23 301.06C924.203 301.06 925.583 301.673 926.37 302.9C927.157 304.127 927.55 305.933 927.55 308.32C927.55 310.053 927.39 311.487 927.07 312.62C926.763 313.74 926.237 314.593 925.49 315.18C924.757 315.767 923.75 316.06 922.47 316.06C921.457 316.06 920.59 315.86 919.87 315.46C919.163 315.06 918.617 314.533 918.23 313.88C917.857 313.227 917.643 312.507 917.59 311.72H920.75ZM922.41 307.9C922.97 307.9 923.417 307.733 923.75 307.4C924.083 307.053 924.25 306.587 924.25 306C924.25 305.36 924.077 304.867 923.73 304.52C923.383 304.173 922.917 304 922.33 304C921.743 304 921.277 304.18 920.93 304.54C920.597 304.887 920.43 305.367 920.43 305.98C920.43 306.553 920.597 307.02 920.93 307.38C921.277 307.727 921.77 307.9 922.41 307.9ZM935.935 313.1V316H934.195C932.955 316 931.988 315.7 931.295 315.1C930.601 314.487 930.255 313.493 930.255 312.12V307.68H928.895V304.84H930.255V302.12H933.675V304.84H935.915V307.68H933.675V312.16C933.675 312.493 933.755 312.733 933.915 312.88C934.075 313.027 934.341 313.1 934.715 313.1H935.935ZM944.7 304.72C945.98 304.72 947.006 305.147 947.78 306C948.553 306.84 948.94 308 948.94 309.48V316H945.54V309.94C945.54 309.193 945.346 308.613 944.96 308.2C944.573 307.787 944.053 307.58 943.4 307.58C942.746 307.58 942.226 307.787 941.84 308.2C941.453 308.613 941.26 309.193 941.26 309.94V316H937.84V301.2H941.26V306.34C941.606 305.847 942.08 305.453 942.68 305.16C943.28 304.867 943.953 304.72 944.7 304.72ZM883.776 343.26C884.229 342.9 884.436 342.733 884.396 342.76C885.703 341.68 886.729 340.793 887.476 340.1C888.236 339.407 888.876 338.68 889.396 337.92C889.916 337.16 890.176 336.42 890.176 335.7C890.176 335.153 890.049 334.727 889.796 334.42C889.543 334.113 889.163 333.96 888.656 333.96C888.149 333.96 887.749 334.153 887.456 334.54C887.176 334.913 887.036 335.447 887.036 336.14H883.736C883.763 335.007 884.003 334.06 884.456 333.3C884.923 332.54 885.529 331.98 886.276 331.62C887.036 331.26 887.876 331.08 888.796 331.08C890.383 331.08 891.576 331.487 892.376 332.3C893.189 333.113 893.596 334.173 893.596 335.48C893.596 336.907 893.109 338.233 892.136 339.46C891.163 340.673 889.923 341.86 888.416 343.02H893.816V345.8H883.776V343.26ZM895.322 338.5C895.322 336.207 895.762 334.4 896.642 333.08C897.535 331.76 898.969 331.1 900.942 331.1C902.915 331.1 904.342 331.76 905.222 333.08C906.115 334.4 906.562 336.207 906.562 338.5C906.562 340.82 906.115 342.64 905.222 343.96C904.342 345.28 902.915 345.94 900.942 345.94C898.969 345.94 897.535 345.28 896.642 343.96C895.762 342.64 895.322 340.82 895.322 338.5ZM903.202 338.5C903.202 337.153 903.055 336.12 902.762 335.4C902.469 334.667 901.862 334.3 900.942 334.3C900.022 334.3 899.415 334.667 899.122 335.4C898.829 336.12 898.682 337.153 898.682 338.5C898.682 339.407 898.735 340.16 898.842 340.76C898.949 341.347 899.162 341.827 899.482 342.2C899.815 342.56 900.302 342.74 900.942 342.74C901.582 342.74 902.062 342.56 902.382 342.2C902.715 341.827 902.935 341.347 903.042 340.76C903.149 340.16 903.202 339.407 903.202 338.5ZM908.249 343.26C908.702 342.9 908.909 342.733 908.869 342.76C910.175 341.68 911.202 340.793 911.949 340.1C912.709 339.407 913.349 338.68 913.869 337.92C914.389 337.16 914.649 336.42 914.649 335.7C914.649 335.153 914.522 334.727 914.269 334.42C914.015 334.113 913.635 333.96 913.129 333.96C912.622 333.96 912.222 334.153 911.929 334.54C911.649 334.913 911.509 335.447 911.509 336.14H908.209C908.235 335.007 908.475 334.06 908.929 333.3C909.395 332.54 910.002 331.98 910.749 331.62C911.509 331.26 912.349 331.08 913.269 331.08C914.855 331.08 916.049 331.487 916.849 332.3C917.662 333.113 918.069 334.173 918.069 335.48C918.069 336.907 917.582 338.233 916.609 339.46C915.635 340.673 914.395 341.86 912.889 343.02H918.289V345.8H908.249V343.26ZM919.915 335.52C919.968 334.093 920.435 332.993 921.315 332.22C922.195 331.447 923.388 331.06 924.895 331.06C925.895 331.06 926.748 331.233 927.455 331.58C928.175 331.927 928.715 332.4 929.075 333C929.448 333.6 929.635 334.273 929.635 335.02C929.635 335.9 929.415 336.62 928.975 337.18C928.535 337.727 928.021 338.1 927.435 338.3V338.38C928.195 338.633 928.795 339.053 929.235 339.64C929.675 340.227 929.895 340.98 929.895 341.9C929.895 342.727 929.701 343.46 929.315 344.1C928.941 344.727 928.388 345.22 927.655 345.58C926.935 345.94 926.075 346.12 925.075 346.12C923.475 346.12 922.195 345.727 921.235 344.94C920.288 344.153 919.788 342.967 919.735 341.38H923.055C923.068 341.967 923.235 342.433 923.555 342.78C923.875 343.113 924.341 343.28 924.955 343.28C925.475 343.28 925.875 343.133 926.155 342.84C926.448 342.533 926.595 342.133 926.595 341.64C926.595 341 926.388 340.54 925.975 340.26C925.575 339.967 924.928 339.82 924.035 339.82H923.395V337.04H924.035C924.715 337.04 925.261 336.927 925.675 336.7C926.101 336.46 926.315 336.04 926.315 335.44C926.315 334.96 926.181 334.587 925.915 334.32C925.648 334.053 925.281 333.92 924.815 333.92C924.308 333.92 923.928 334.073 923.675 334.38C923.435 334.687 923.295 335.067 923.255 335.52H919.915Z" fill="white"/>
<path d="M589.971 301.96C591.451 301.96 592.744 302.253 593.851 302.84C594.957 303.427 595.811 304.253 596.411 305.32C597.024 306.373 597.331 307.593 597.331 308.98C597.331 310.353 597.024 311.573 596.411 312.64C595.811 313.707 594.951 314.533 593.831 315.12C592.724 315.707 591.437 316 589.971 316H584.711V301.96H589.971ZM589.751 313.04C591.044 313.04 592.051 312.687 592.771 311.98C593.491 311.273 593.851 310.273 593.851 308.98C593.851 307.687 593.491 306.68 592.771 305.96C592.051 305.24 591.044 304.88 589.751 304.88H588.131V313.04H589.751ZM609.762 310.24C609.762 310.56 609.742 310.893 609.702 311.24H601.962C602.015 311.933 602.235 312.467 602.622 312.84C603.022 313.2 603.509 313.38 604.082 313.38C604.935 313.38 605.529 313.02 605.862 312.3H609.502C609.315 313.033 608.975 313.693 608.482 314.28C608.002 314.867 607.395 315.327 606.662 315.66C605.929 315.993 605.109 316.16 604.202 316.16C603.109 316.16 602.135 315.927 601.282 315.46C600.429 314.993 599.762 314.327 599.282 313.46C598.802 312.593 598.562 311.58 598.562 310.42C598.562 309.26 598.795 308.247 599.262 307.38C599.742 306.513 600.409 305.847 601.262 305.38C602.115 304.913 603.095 304.68 604.202 304.68C605.282 304.68 606.242 304.907 607.082 305.36C607.922 305.813 608.575 306.46 609.042 307.3C609.522 308.14 609.762 309.12 609.762 310.24ZM606.262 309.34C606.262 308.753 606.062 308.287 605.662 307.94C605.262 307.593 604.762 307.42 604.162 307.42C603.589 307.42 603.102 307.587 602.702 307.92C602.315 308.253 602.075 308.727 601.982 309.34H606.262ZM610.886 310.42C610.886 309.26 611.12 308.247 611.586 307.38C612.066 306.513 612.726 305.847 613.566 305.38C614.42 304.913 615.393 304.68 616.486 304.68C617.886 304.68 619.053 305.047 619.986 305.78C620.933 306.513 621.553 307.547 621.846 308.88H618.206C617.9 308.027 617.306 307.6 616.426 307.6C615.8 307.6 615.3 307.847 614.926 308.34C614.553 308.82 614.366 309.513 614.366 310.42C614.366 311.327 614.553 312.027 614.926 312.52C615.3 313 615.8 313.24 616.426 313.24C617.306 313.24 617.9 312.813 618.206 311.96H621.846C621.553 313.267 620.933 314.293 619.986 315.04C619.04 315.787 617.873 316.16 616.486 316.16C615.393 316.16 614.42 315.927 613.566 315.46C612.726 314.993 612.066 314.327 611.586 313.46C611.12 312.593 610.886 311.58 610.886 310.42ZM627.214 304.58V301.4H632.754V316H629.194V304.58H627.214ZM642.313 305.34C642.207 304.847 642.02 304.48 641.753 304.24C641.487 303.987 641.107 303.86 640.613 303.86C639.853 303.86 639.307 304.193 638.973 304.86C638.64 305.513 638.467 306.553 638.453 307.98C638.747 307.513 639.167 307.147 639.713 306.88C640.273 306.613 640.887 306.48 641.553 306.48C642.86 306.48 643.907 306.893 644.693 307.72C645.493 308.547 645.893 309.7 645.893 311.18C645.893 312.153 645.693 313.007 645.293 313.74C644.907 314.473 644.333 315.047 643.573 315.46C642.827 315.873 641.94 316.08 640.913 316.08C638.86 316.08 637.433 315.44 636.633 314.16C635.833 312.867 635.433 311.013 635.433 308.6C635.433 306.067 635.853 304.187 636.693 302.96C637.547 301.72 638.907 301.1 640.773 301.1C641.773 301.1 642.613 301.3 643.293 301.7C643.987 302.087 644.507 302.6 644.853 303.24C645.213 303.88 645.427 304.58 645.493 305.34H642.313ZM640.733 309.18C640.16 309.18 639.68 309.353 639.293 309.7C638.92 310.033 638.733 310.513 638.733 311.14C638.733 311.78 638.907 312.28 639.253 312.64C639.613 313 640.12 313.18 640.773 313.18C641.36 313.18 641.82 313.007 642.153 312.66C642.5 312.3 642.673 311.813 642.673 311.2C642.673 310.573 642.507 310.08 642.173 309.72C641.84 309.36 641.36 309.18 640.733 309.18ZM654.388 313.1V316H652.648C651.408 316 650.441 315.7 649.748 315.1C649.054 314.487 648.708 313.493 648.708 312.12V307.68H647.348V304.84H648.708V302.12H652.128V304.84H654.368V307.68H652.128V312.16C652.128 312.493 652.208 312.733 652.368 312.88C652.528 313.027 652.794 313.1 653.168 313.1H654.388ZM663.153 304.72C664.433 304.72 665.459 305.147 666.233 306C667.006 306.84 667.393 308 667.393 309.48V316H663.993V309.94C663.993 309.193 663.799 308.613 663.413 308.2C663.026 307.787 662.506 307.58 661.853 307.58C661.199 307.58 660.679 307.787 660.293 308.2C659.906 308.613 659.713 309.193 659.713 309.94V316H656.293V301.2H659.713V306.34C660.059 305.847 660.533 305.453 661.133 305.16C661.733 304.867 662.406 304.72 663.153 304.72ZM603.118 343.26C603.571 342.9 603.778 342.733 603.738 342.76C605.045 341.68 606.071 340.793 606.818 340.1C607.578 339.407 608.218 338.68 608.738 337.92C609.258 337.16 609.518 336.42 609.518 335.7C609.518 335.153 609.391 334.727 609.138 334.42C608.885 334.113 608.505 333.96 607.998 333.96C607.491 333.96 607.091 334.153 606.798 334.54C606.518 334.913 606.378 335.447 606.378 336.14H603.078C603.105 335.007 603.345 334.06 603.798 333.3C604.265 332.54 604.871 331.98 605.618 331.62C606.378 331.26 607.218 331.08 608.138 331.08C609.725 331.08 610.918 331.487 611.718 332.3C612.531 333.113 612.938 334.173 612.938 335.48C612.938 336.907 612.451 338.233 611.478 339.46C610.505 340.673 609.265 341.86 607.758 343.02H613.158V345.8H603.118V343.26ZM614.664 338.5C614.664 336.207 615.104 334.4 615.984 333.08C616.877 331.76 618.31 331.1 620.284 331.1C622.257 331.1 623.684 331.76 624.564 333.08C625.457 334.4 625.904 336.207 625.904 338.5C625.904 340.82 625.457 342.64 624.564 343.96C623.684 345.28 622.257 345.94 620.284 345.94C618.31 345.94 616.877 345.28 615.984 343.96C615.104 342.64 614.664 340.82 614.664 338.5ZM622.544 338.5C622.544 337.153 622.397 336.12 622.104 335.4C621.81 334.667 621.204 334.3 620.284 334.3C619.364 334.3 618.757 334.667 618.464 335.4C618.17 336.12 618.024 337.153 618.024 338.5C618.024 339.407 618.077 340.16 618.184 340.76C618.29 341.347 618.504 341.827 618.824 342.2C619.157 342.56 619.644 342.74 620.284 342.74C620.924 342.74 621.404 342.56 621.724 342.2C622.057 341.827 622.277 341.347 622.384 340.76C622.49 340.16 622.544 339.407 622.544 338.5ZM627.591 343.26C628.044 342.9 628.251 342.733 628.211 342.76C629.517 341.68 630.544 340.793 631.291 340.1C632.051 339.407 632.691 338.68 633.211 337.92C633.731 337.16 633.991 336.42 633.991 335.7C633.991 335.153 633.864 334.727 633.611 334.42C633.357 334.113 632.977 333.96 632.471 333.96C631.964 333.96 631.564 334.153 631.271 334.54C630.991 334.913 630.851 335.447 630.851 336.14H627.551C627.577 335.007 627.817 334.06 628.271 333.3C628.737 332.54 629.344 331.98 630.091 331.62C630.851 331.26 631.691 331.08 632.611 331.08C634.197 331.08 635.391 331.487 636.191 332.3C637.004 333.113 637.411 334.173 637.411 335.48C637.411 336.907 636.924 338.233 635.951 339.46C634.977 340.673 633.737 341.86 632.231 343.02H637.631V345.8H627.591V343.26ZM639.016 343.26C639.47 342.9 639.676 342.733 639.636 342.76C640.943 341.68 641.97 340.793 642.716 340.1C643.476 339.407 644.116 338.68 644.636 337.92C645.156 337.16 645.416 336.42 645.416 335.7C645.416 335.153 645.29 334.727 645.036 334.42C644.783 334.113 644.403 333.96 643.896 333.96C643.39 333.96 642.99 334.153 642.696 334.54C642.416 334.913 642.276 335.447 642.276 336.14H638.976C639.003 335.007 639.243 334.06 639.696 333.3C640.163 332.54 640.77 331.98 641.516 331.62C642.276 331.26 643.116 331.08 644.036 331.08C645.623 331.08 646.816 331.487 647.616 332.3C648.43 333.113 648.836 334.173 648.836 335.48C648.836 336.907 648.35 338.233 647.376 339.46C646.403 340.673 645.163 341.86 643.656 343.02H649.056V345.8H639.016V343.26Z" fill="white"/>
<path d="M315.829 316.14C314.509 316.14 313.296 315.833 312.189 315.22C311.096 314.607 310.223 313.753 309.569 312.66C308.929 311.553 308.609 310.313 308.609 308.94C308.609 307.567 308.929 306.333 309.569 305.24C310.223 304.147 311.096 303.293 312.189 302.68C313.296 302.067 314.509 301.76 315.829 301.76C317.149 301.76 318.356 302.067 319.449 302.68C320.556 303.293 321.423 304.147 322.049 305.24C322.689 306.333 323.009 307.567 323.009 308.94C323.009 310.313 322.689 311.553 322.049 312.66C321.409 313.753 320.543 314.607 319.449 315.22C318.356 315.833 317.149 316.14 315.829 316.14ZM315.829 313.02C316.949 313.02 317.843 312.647 318.509 311.9C319.189 311.153 319.529 310.167 319.529 308.94C319.529 307.7 319.189 306.713 318.509 305.98C317.843 305.233 316.949 304.86 315.829 304.86C314.696 304.86 313.789 305.227 313.109 305.96C312.443 306.693 312.109 307.687 312.109 308.94C312.109 310.18 312.443 311.173 313.109 311.92C313.789 312.653 314.696 313.02 315.829 313.02ZM324.232 310.42C324.232 309.26 324.465 308.247 324.932 307.38C325.412 306.513 326.072 305.847 326.912 305.38C327.765 304.913 328.739 304.68 329.832 304.68C331.232 304.68 332.399 305.047 333.332 305.78C334.279 306.513 334.899 307.547 335.192 308.88H331.552C331.245 308.027 330.652 307.6 329.772 307.6C329.145 307.6 328.645 307.847 328.272 308.34C327.899 308.82 327.712 309.513 327.712 310.42C327.712 311.327 327.899 312.027 328.272 312.52C328.645 313 329.145 313.24 329.772 313.24C330.652 313.24 331.245 312.813 331.552 311.96H335.192C334.899 313.267 334.279 314.293 333.332 315.04C332.385 315.787 331.219 316.16 329.832 316.16C328.739 316.16 327.765 315.927 326.912 315.46C326.072 314.993 325.412 314.327 324.932 313.46C324.465 312.593 324.232 311.58 324.232 310.42ZM343.241 313.1V316H341.501C340.261 316 339.295 315.7 338.601 315.1C337.908 314.487 337.561 313.493 337.561 312.12V307.68H336.201V304.84H337.561V302.12H340.981V304.84H343.221V307.68H340.981V312.16C340.981 312.493 341.061 312.733 341.221 312.88C341.381 313.027 341.648 313.1 342.021 313.1H343.241ZM352.725 311.72C352.925 312.773 353.538 313.3 354.565 313.3C355.271 313.3 355.771 312.987 356.065 312.36C356.358 311.733 356.505 310.713 356.505 309.3C356.211 309.713 355.811 310.033 355.305 310.26C354.798 310.487 354.231 310.6 353.605 310.6C352.751 310.6 351.991 310.427 351.325 310.08C350.658 309.72 350.131 309.193 349.745 308.5C349.371 307.793 349.185 306.94 349.185 305.94C349.185 304.953 349.385 304.093 349.785 303.36C350.198 302.627 350.778 302.06 351.525 301.66C352.285 301.26 353.178 301.06 354.205 301.06C356.178 301.06 357.558 301.673 358.345 302.9C359.131 304.127 359.525 305.933 359.525 308.32C359.525 310.053 359.365 311.487 359.045 312.62C358.738 313.74 358.211 314.593 357.465 315.18C356.731 315.767 355.725 316.06 354.445 316.06C353.431 316.06 352.565 315.86 351.845 315.46C351.138 315.06 350.591 314.533 350.205 313.88C349.831 313.227 349.618 312.507 349.565 311.72H352.725ZM354.385 307.9C354.945 307.9 355.391 307.733 355.725 307.4C356.058 307.053 356.225 306.587 356.225 306C356.225 305.36 356.051 304.867 355.705 304.52C355.358 304.173 354.891 304 354.305 304C353.718 304 353.251 304.18 352.905 304.54C352.571 304.887 352.405 305.367 352.405 305.98C352.405 306.553 352.571 307.02 352.905 307.38C353.251 307.727 353.745 307.9 354.385 307.9ZM367.909 313.1V316H366.169C364.929 316 363.963 315.7 363.269 315.1C362.576 314.487 362.229 313.493 362.229 312.12V307.68H360.869V304.84H362.229V302.12H365.649V304.84H367.889V307.68H365.649V312.16C365.649 312.493 365.729 312.733 365.889 312.88C366.049 313.027 366.316 313.1 366.689 313.1H367.909ZM376.674 304.72C377.954 304.72 378.981 305.147 379.754 306C380.528 306.84 380.914 308 380.914 309.48V316H377.514V309.94C377.514 309.193 377.321 308.613 376.934 308.2C376.548 307.787 376.028 307.58 375.374 307.58C374.721 307.58 374.201 307.787 373.814 308.2C373.428 308.613 373.234 309.193 373.234 309.94V316H369.814V301.2H373.234V306.34C373.581 305.847 374.054 305.453 374.654 305.16C375.254 304.867 375.928 304.72 376.674 304.72ZM322.118 343.26C322.571 342.9 322.778 342.733 322.738 342.76C324.045 341.68 325.071 340.793 325.818 340.1C326.578 339.407 327.218 338.68 327.738 337.92C328.258 337.16 328.518 336.42 328.518 335.7C328.518 335.153 328.391 334.727 328.138 334.42C327.885 334.113 327.505 333.96 326.998 333.96C326.491 333.96 326.091 334.153 325.798 334.54C325.518 334.913 325.378 335.447 325.378 336.14H322.078C322.105 335.007 322.345 334.06 322.798 333.3C323.265 332.54 323.871 331.98 324.618 331.62C325.378 331.26 326.218 331.08 327.138 331.08C328.725 331.08 329.918 331.487 330.718 332.3C331.531 333.113 331.938 334.173 331.938 335.48C331.938 336.907 331.451 338.233 330.478 339.46C329.505 340.673 328.265 341.86 326.758 343.02H332.158V345.8H322.118V343.26ZM333.664 338.5C333.664 336.207 334.104 334.4 334.984 333.08C335.877 331.76 337.31 331.1 339.284 331.1C341.257 331.1 342.684 331.76 343.564 333.08C344.457 334.4 344.904 336.207 344.904 338.5C344.904 340.82 344.457 342.64 343.564 343.96C342.684 345.28 341.257 345.94 339.284 345.94C337.31 345.94 335.877 345.28 334.984 343.96C334.104 342.64 333.664 340.82 333.664 338.5ZM341.544 338.5C341.544 337.153 341.397 336.12 341.104 335.4C340.81 334.667 340.204 334.3 339.284 334.3C338.364 334.3 337.757 334.667 337.464 335.4C337.17 336.12 337.024 337.153 337.024 338.5C337.024 339.407 337.077 340.16 337.184 340.76C337.29 341.347 337.504 341.827 337.824 342.2C338.157 342.56 338.644 342.74 339.284 342.74C339.924 342.74 340.404 342.56 340.724 342.2C341.057 341.827 341.277 341.347 341.384 340.76C341.49 340.16 341.544 339.407 341.544 338.5ZM346.591 343.26C347.044 342.9 347.251 342.733 347.211 342.76C348.517 341.68 349.544 340.793 350.291 340.1C351.051 339.407 351.691 338.68 352.211 337.92C352.731 337.16 352.991 336.42 352.991 335.7C352.991 335.153 352.864 334.727 352.611 334.42C352.357 334.113 351.977 333.96 351.471 333.96C350.964 333.96 350.564 334.153 350.271 334.54C349.991 334.913 349.851 335.447 349.851 336.14H346.551C346.577 335.007 346.817 334.06 347.271 333.3C347.737 332.54 348.344 331.98 349.091 331.62C349.851 331.26 350.691 331.08 351.611 331.08C353.197 331.08 354.391 331.487 355.191 332.3C356.004 333.113 356.411 334.173 356.411 335.48C356.411 336.907 355.924 338.233 354.951 339.46C353.977 340.673 352.737 341.86 351.231 343.02H356.631V345.8H346.591V343.26ZM358.016 343.26C358.47 342.9 358.676 342.733 358.636 342.76C359.943 341.68 360.97 340.793 361.716 340.1C362.476 339.407 363.116 338.68 363.636 337.92C364.156 337.16 364.416 336.42 364.416 335.7C364.416 335.153 364.29 334.727 364.036 334.42C363.783 334.113 363.403 333.96 362.896 333.96C362.39 333.96 361.99 334.153 361.696 334.54C361.416 334.913 361.276 335.447 361.276 336.14H357.976C358.003 335.007 358.243 334.06 358.696 333.3C359.163 332.54 359.77 331.98 360.516 331.62C361.276 331.26 362.116 331.08 363.036 331.08C364.623 331.08 365.816 331.487 366.616 332.3C367.43 333.113 367.836 334.173 367.836 335.48C367.836 336.907 367.35 338.233 366.376 339.46C365.403 340.673 364.163 341.86 362.656 343.02H368.056V345.8H358.016V343.26Z" fill="white"/>
<rect x="1144" width="89" height="142" rx="10" fill="#D9D9D9"/>
<path d="M1164.82 48L1161.9 42.7H1161.08V48H1157.66V33.96H1163.4C1164.51 33.96 1165.45 34.1533 1166.22 34.54C1167.01 34.9267 1167.6 35.46 1167.98 36.14C1168.37 36.8067 1168.56 37.5533 1168.56 38.38C1168.56 39.3133 1168.3 40.1467 1167.76 40.88C1167.24 41.6133 1166.47 42.1333 1165.44 42.44L1168.68 48H1164.82ZM1161.08 40.28H1163.2C1163.83 40.28 1164.3 40.1267 1164.6 39.82C1164.92 39.5133 1165.08 39.08 1165.08 38.52C1165.08 37.9867 1164.92 37.5667 1164.6 37.26C1164.3 36.9533 1163.83 36.8 1163.2 36.8H1161.08V40.28ZM1181.23 42.24C1181.23 42.56 1181.21 42.8933 1181.17 43.24H1173.43C1173.48 43.9333 1173.7 44.4667 1174.09 44.84C1174.49 45.2 1174.98 45.38 1175.55 45.38C1176.4 45.38 1177 45.02 1177.33 44.3H1180.97C1180.78 45.0333 1180.44 45.6933 1179.95 46.28C1179.47 46.8667 1178.86 47.3267 1178.13 47.66C1177.4 47.9933 1176.58 48.16 1175.67 48.16C1174.58 48.16 1173.6 47.9267 1172.75 47.46C1171.9 46.9933 1171.23 46.3267 1170.75 45.46C1170.27 44.5933 1170.03 43.58 1170.03 42.42C1170.03 41.26 1170.26 40.2467 1170.73 39.38C1171.21 38.5133 1171.88 37.8467 1172.73 37.38C1173.58 36.9133 1174.56 36.68 1175.67 36.68C1176.75 36.68 1177.71 36.9067 1178.55 37.36C1179.39 37.8133 1180.04 38.46 1180.51 39.3C1180.99 40.14 1181.23 41.12 1181.23 42.24ZM1177.73 41.34C1177.73 40.7533 1177.53 40.2867 1177.13 39.94C1176.73 39.5933 1176.23 39.42 1175.63 39.42C1175.06 39.42 1174.57 39.5867 1174.17 39.92C1173.78 40.2533 1173.54 40.7267 1173.45 41.34H1177.73ZM1182.35 42.4C1182.35 41.2533 1182.57 40.2467 1182.99 39.38C1183.43 38.5133 1184.03 37.8467 1184.77 37.38C1185.52 36.9133 1186.35 36.68 1187.27 36.68C1188.06 36.68 1188.75 36.84 1189.33 37.16C1189.93 37.48 1190.39 37.9 1190.71 38.42V36.84H1194.13V48H1190.71V46.42C1190.38 46.94 1189.91 47.36 1189.31 47.68C1188.73 48 1188.04 48.16 1187.25 48.16C1186.35 48.16 1185.52 47.9267 1184.77 47.46C1184.03 46.98 1183.43 46.3067 1182.99 45.44C1182.57 44.56 1182.35 43.5467 1182.35 42.4ZM1190.71 42.42C1190.71 41.5667 1190.47 40.8933 1189.99 40.4C1189.53 39.9067 1188.95 39.66 1188.27 39.66C1187.59 39.66 1187.01 39.9067 1186.53 40.4C1186.07 40.88 1185.83 41.5467 1185.83 42.4C1185.83 43.2533 1186.07 43.9333 1186.53 44.44C1187.01 44.9333 1187.59 45.18 1188.27 45.18C1188.95 45.18 1189.53 44.9333 1189.99 44.44C1190.47 43.9467 1190.71 43.2733 1190.71 42.42ZM1195.93 42.4C1195.93 41.2533 1196.14 40.2467 1196.57 39.38C1197.01 38.5133 1197.6 37.8467 1198.35 37.38C1199.09 36.9133 1199.93 36.68 1200.85 36.68C1201.58 36.68 1202.25 36.8333 1202.85 37.14C1203.46 37.4467 1203.94 37.86 1204.29 38.38V33.2H1207.71V48H1204.29V46.4C1203.97 46.9333 1203.51 47.36 1202.91 47.68C1202.32 48 1201.63 48.16 1200.85 48.16C1199.93 48.16 1199.09 47.9267 1198.35 47.46C1197.6 46.98 1197.01 46.3067 1196.57 45.44C1196.14 44.56 1195.93 43.5467 1195.93 42.4ZM1204.29 42.42C1204.29 41.5667 1204.05 40.8933 1203.57 40.4C1203.1 39.9067 1202.53 39.66 1201.85 39.66C1201.17 39.66 1200.59 39.9067 1200.11 40.4C1199.64 40.88 1199.41 41.5467 1199.41 42.4C1199.41 43.2533 1199.64 43.9333 1200.11 44.44C1200.59 44.9333 1201.17 45.18 1201.85 45.18C1202.53 45.18 1203.1 44.9333 1203.57 44.44C1204.05 43.9467 1204.29 43.2733 1204.29 42.42ZM1221.58 36.84L1214.58 53.3H1210.9L1213.46 47.62L1208.92 36.84H1212.74L1215.32 43.82L1217.88 36.84H1221.58ZM1170.96 75.1V78H1169.22C1167.98 78 1167.02 77.7 1166.32 77.1C1165.63 76.4867 1165.28 75.4933 1165.28 74.12V69.68H1163.92V66.84H1165.28V64.12H1168.7V66.84H1170.94V69.68H1168.7V74.16C1168.7 74.4933 1168.78 74.7333 1168.94 74.88C1169.1 75.0267 1169.37 75.1 1169.74 75.1H1170.96ZM1177.95 78.16C1176.85 78.16 1175.87 77.9267 1174.99 77.46C1174.12 76.9933 1173.43 76.3267 1172.93 75.46C1172.43 74.5933 1172.19 73.58 1172.19 72.42C1172.19 71.2733 1172.44 70.2667 1172.95 69.4C1173.45 68.52 1174.15 67.8467 1175.03 67.38C1175.91 66.9133 1176.89 66.68 1177.99 66.68C1179.08 66.68 1180.07 66.9133 1180.95 67.38C1181.83 67.8467 1182.52 68.52 1183.03 69.4C1183.53 70.2667 1183.79 71.2733 1183.79 72.42C1183.79 73.5667 1183.53 74.58 1183.01 75.46C1182.5 76.3267 1181.8 76.9933 1180.91 77.46C1180.03 77.9267 1179.04 78.16 1177.95 78.16ZM1177.95 75.2C1178.6 75.2 1179.15 74.96 1179.61 74.48C1180.07 74 1180.31 73.3133 1180.31 72.42C1180.31 71.5267 1180.08 70.84 1179.63 70.36C1179.19 69.88 1178.64 69.64 1177.99 69.64C1177.32 69.64 1176.77 69.88 1176.33 70.36C1175.89 70.8267 1175.67 71.5133 1175.67 72.42C1175.67 73.3133 1175.88 74 1176.31 74.48C1176.75 74.96 1177.29 75.2 1177.95 75.2ZM1193.26 68.42C1193.58 67.9 1194.04 67.48 1194.64 67.16C1195.24 66.84 1195.93 66.68 1196.7 66.68C1197.62 66.68 1198.45 66.9133 1199.2 67.38C1199.95 67.8467 1200.53 68.5133 1200.96 69.38C1201.4 70.2467 1201.62 71.2533 1201.62 72.4C1201.62 73.5467 1201.4 74.56 1200.96 75.44C1200.53 76.3067 1199.95 76.98 1199.2 77.46C1198.45 77.9267 1197.62 78.16 1196.7 78.16C1195.91 78.16 1195.23 78.0067 1194.64 77.7C1194.05 77.38 1193.59 76.96 1193.26 76.44V78H1189.84V63.2H1193.26V68.42ZM1198.14 72.4C1198.14 71.5467 1197.9 70.88 1197.42 70.4C1196.95 69.9067 1196.37 69.66 1195.68 69.66C1195 69.66 1194.42 69.9067 1193.94 70.4C1193.47 70.8933 1193.24 71.5667 1193.24 72.42C1193.24 73.2733 1193.47 73.9467 1193.94 74.44C1194.42 74.9333 1195 75.18 1195.68 75.18C1196.36 75.18 1196.94 74.9333 1197.42 74.44C1197.9 73.9333 1198.14 73.2533 1198.14 72.4ZM1213.93 72.24C1213.93 72.56 1213.91 72.8933 1213.87 73.24H1206.13C1206.19 73.9333 1206.41 74.4667 1206.79 74.84C1207.19 75.2 1207.68 75.38 1208.25 75.38C1209.11 75.38 1209.7 75.02 1210.03 74.3H1213.67C1213.49 75.0333 1213.15 75.6933 1212.65 76.28C1212.17 76.8667 1211.57 77.3267 1210.83 77.66C1210.1 77.9933 1209.28 78.16 1208.37 78.16C1207.28 78.16 1206.31 77.9267 1205.45 77.46C1204.6 76.9933 1203.93 76.3267 1203.45 75.46C1202.97 74.5933 1202.73 73.58 1202.73 72.42C1202.73 71.26 1202.97 70.2467 1203.43 69.38C1203.91 68.5133 1204.58 67.8467 1205.43 67.38C1206.29 66.9133 1207.27 66.68 1208.37 66.68C1209.45 66.68 1210.41 66.9067 1211.25 67.36C1212.09 67.8133 1212.75 68.46 1213.21 69.3C1213.69 70.14 1213.93 71.12 1213.93 72.24ZM1210.43 71.34C1210.43 70.7533 1210.23 70.2867 1209.83 69.94C1209.43 69.5933 1208.93 69.42 1208.33 69.42C1207.76 69.42 1207.27 69.5867 1206.87 69.92C1206.49 70.2533 1206.25 70.7267 1206.15 71.34H1210.43ZM1164.15 96.72C1165.43 96.72 1166.46 97.1467 1167.23 98C1168 98.84 1168.39 100 1168.39 101.48V108H1164.99V101.94C1164.99 101.193 1164.8 100.613 1164.41 100.2C1164.02 99.7867 1163.5 99.58 1162.85 99.58C1162.2 99.58 1161.68 99.7867 1161.29 100.2C1160.9 100.613 1160.71 101.193 1160.71 101.94V108H1157.29V93.2H1160.71V98.34C1161.06 97.8467 1161.53 97.4533 1162.13 97.16C1162.73 96.8667 1163.4 96.72 1164.15 96.72ZM1172.49 95.68C1171.89 95.68 1171.39 95.5067 1171.01 95.16C1170.63 94.8 1170.45 94.36 1170.45 93.84C1170.45 93.3067 1170.63 92.8667 1171.01 92.52C1171.39 92.16 1171.89 91.98 1172.49 91.98C1173.07 91.98 1173.55 92.16 1173.93 92.52C1174.31 92.8667 1174.51 93.3067 1174.51 93.84C1174.51 94.36 1174.31 94.8 1173.93 95.16C1173.55 95.5067 1173.07 95.68 1172.49 95.68ZM1174.19 96.84V108H1170.77V96.84H1174.19ZM1180.09 98.7C1180.49 98.0867 1180.99 97.6067 1181.59 97.26C1182.19 96.9 1182.85 96.72 1183.59 96.72V100.34H1182.65C1181.79 100.34 1181.15 100.527 1180.73 100.9C1180.3 101.26 1180.09 101.9 1180.09 102.82V108H1176.67V96.84H1180.09V98.7ZM1195.74 102.24C1195.74 102.56 1195.72 102.893 1195.68 103.24H1187.94C1187.99 103.933 1188.21 104.467 1188.6 104.84C1189 105.2 1189.49 105.38 1190.06 105.38C1190.91 105.38 1191.51 105.02 1191.84 104.3H1195.48C1195.29 105.033 1194.95 105.693 1194.46 106.28C1193.98 106.867 1193.37 107.327 1192.64 107.66C1191.91 107.993 1191.09 108.16 1190.18 108.16C1189.09 108.16 1188.11 107.927 1187.26 107.46C1186.41 106.993 1185.74 106.327 1185.26 105.46C1184.78 104.593 1184.54 103.58 1184.54 102.42C1184.54 101.26 1184.77 100.247 1185.24 99.38C1185.72 98.5133 1186.39 97.8467 1187.24 97.38C1188.09 96.9133 1189.07 96.68 1190.18 96.68C1191.26 96.68 1192.22 96.9067 1193.06 97.36C1193.9 97.8133 1194.55 98.46 1195.02 99.3C1195.5 100.14 1195.74 101.12 1195.74 102.24ZM1192.24 101.34C1192.24 100.753 1192.04 100.287 1191.64 99.94C1191.24 99.5933 1190.74 99.42 1190.14 99.42C1189.57 99.42 1189.08 99.5867 1188.68 99.92C1188.29 100.253 1188.05 100.727 1187.96 101.34H1192.24ZM1196.86 102.4C1196.86 101.253 1197.08 100.247 1197.5 99.38C1197.94 98.5133 1198.54 97.8467 1199.28 97.38C1200.03 96.9133 1200.86 96.68 1201.78 96.68C1202.52 96.68 1203.18 96.8333 1203.78 97.14C1204.4 97.4467 1204.88 97.86 1205.22 98.38V93.2H1208.64V108H1205.22V106.4C1204.9 106.933 1204.44 107.36 1203.84 107.68C1203.26 108 1202.57 108.16 1201.78 108.16C1200.86 108.16 1200.03 107.927 1199.28 107.46C1198.54 106.98 1197.94 106.307 1197.5 105.44C1197.08 104.56 1196.86 103.547 1196.86 102.4ZM1205.22 102.42C1205.22 101.567 1204.98 100.893 1204.5 100.4C1204.04 99.9067 1203.46 99.66 1202.78 99.66C1202.1 99.66 1201.52 99.9067 1201.04 100.4C1200.58 100.88 1200.34 101.547 1200.34 102.4C1200.34 103.253 1200.58 103.933 1201.04 104.44C1201.52 104.933 1202.1 105.18 1202.78 105.18C1203.46 105.18 1204.04 104.933 1204.5 104.44C1204.98 103.947 1205.22 103.273 1205.22 102.42ZM1219.86 93.46L1219.46 103.04H1216.56L1216.16 93.46H1219.86ZM1218.06 108.16C1217.46 108.16 1216.96 107.987 1216.58 107.64C1216.2 107.28 1216.02 106.84 1216.02 106.32C1216.02 105.787 1216.2 105.34 1216.58 104.98C1216.96 104.62 1217.46 104.44 1218.06 104.44C1218.64 104.44 1219.12 104.62 1219.5 104.98C1219.88 105.34 1220.08 105.787 1220.08 106.32C1220.08 106.84 1219.88 107.28 1219.5 107.64C1219.12 107.987 1218.64 108.16 1218.06 108.16Z" fill="black"/>
<path d="M1189 167L1175.14 141.5H1202.86L1189 167Z" fill="#D9D9D9"/>
<path d="M363.385 66.7507C369.757 66.7507 374.923 62.5533 374.923 57.3754C374.923 52.1974 369.757 48 363.385 48C357.012 48 351.846 52.1974 351.846 57.3754C351.846 62.5533 357.012 66.7507 363.385 66.7507ZM325.329 110.008L321.772 116.751H305.692C301.445 116.751 298 119.55 298 123.001C298 126.452 301.445 129.251 305.692 129.251H324.31C328.937 129.251 333.103 127.017 334.913 123.569L337.026 119.561L334.462 118.331C330.298 116.333 327.236 113.376 325.329 110.008ZM390.308 91.7498H379.724L373.459 81.349C370.454 76.3585 364.938 72.7099 358.608 71.3994L341.522 67.2703C334.719 65.9421 327.635 67.1629 322.089 70.6181L312.553 76.5578C309.18 78.6574 308.541 82.5795 311.13 85.3198C313.719 88.0602 318.543 88.5739 321.913 86.4761L331.454 80.5364C333.298 79.386 335.647 78.9739 337.529 79.3372L341.062 80.1907L332.058 97.2597C329.024 103.018 331.743 109.762 338.38 112.946L358.808 122.745L352.204 139.881C350.935 143.174 353.192 146.68 357.245 147.711C358.012 147.906 358.786 148 359.548 148C362.82 148 365.853 146.287 366.885 143.615L374.49 123.876C375.911 119.819 373.796 115.462 369.288 113.253L354.567 106.194L362.094 90.904L366.966 98.9961C368.889 102.188 372.957 104.248 377.329 104.248H390.308C394.555 104.248 398 101.449 398 97.998C398 94.5467 394.555 91.7498 390.308 91.7498Z" fill="#FAC300"/>
<path d="M627.614 66.7473C632.789 66.7473 636.988 62.5486 636.988 57.3736C636.988 52.1986 632.789 48 627.614 48C622.439 48 618.241 52.1986 618.241 57.3736C618.241 62.5486 622.439 66.7473 627.614 66.7473ZM646.068 95.8641L641.518 93.5597L639.624 87.8184C636.753 79.1087 628.747 73.0159 619.666 72.9963C612.636 72.9768 608.75 74.9687 601.446 77.9175C597.228 79.6165 593.771 82.8386 591.741 86.9396L590.432 89.5955C588.909 92.681 590.139 96.4304 593.205 97.9731C596.252 99.5159 599.962 98.2661 601.505 95.1806L602.813 92.5247C603.497 91.1577 604.629 90.0837 606.035 89.5174L611.269 87.4083L608.301 99.262C607.285 103.324 608.379 107.64 611.21 110.745L622.908 123.516C624.314 125.059 625.31 126.914 625.818 128.926L629.391 143.24C630.231 146.579 633.629 148.63 636.968 147.79C640.308 146.95 642.358 143.552 641.518 140.213L637.183 122.833C636.675 120.821 635.679 118.947 634.273 117.423L625.388 107.718L628.747 94.3018L629.821 97.524C630.856 100.668 633.082 103.265 636.011 104.75L640.561 107.054C643.608 108.597 647.318 107.347 648.861 104.261C650.365 101.195 649.134 97.4068 646.068 95.8641ZM601.368 123.341C600.743 124.922 599.806 126.348 598.595 127.539L588.831 137.323C586.39 139.764 586.39 143.728 588.831 146.169C591.272 148.61 595.217 148.61 597.658 146.169L609.257 134.569C610.449 133.378 611.386 131.953 612.031 130.371L614.667 123.77C603.868 111.995 607.109 115.607 605.41 113.283L601.368 123.341Z" fill="#F5F5F5"/>
<path d="M918 73C924.904 73 930.5 67.4043 930.5 60.5C930.5 53.5957 924.904 48 918 48C911.096 48 905.5 53.5957 905.5 60.5C905.5 67.4043 911.096 73 918 73ZM912.018 106.154C914.764 109.42 919.635 109.883 922.949 107.174L940.137 93.1074C943.475 90.377 943.963 85.4531 941.234 82.1152C938.506 78.7734 933.58 78.2891 930.236 81.0176L919.018 90.1973L911.418 81.1523C908.402 77.5605 903.758 75.6992 898.918 76.2051C894.193 76.6895 890.08 79.3828 887.908 83.416L878.266 101.391C873.695 109.914 876.568 120.213 884.943 125.561L893.695 132.375H875.813C871.498 132.375 868 135.873 868 140.188C868 144.502 871.498 148 875.813 148H916.438C923.094 148 926.939 139.643 921.961 134.664L900.504 113.207L907.301 100.537L912.018 106.154Z" fill="#F5F5F5"/>
<path d="M71.4931 79.25C80.1259 79.25 87.1181 72.2578 87.1181 63.625C87.1181 54.9922 80.1259 48 71.4931 48C62.8602 48 55.8681 54.9922 55.8681 63.625C55.8681 72.2578 62.8602 79.25 71.4931 79.25ZM61.0634 127.844L66.0634 121.594L54.0516 111.594L45.0868 122.805C42.8602 125.578 42.8016 129.523 44.9306 132.375L54.3056 144.875C55.8485 146.926 58.1923 148 60.5556 148C62.1766 148 63.8368 147.492 65.2431 146.438C68.7001 143.859 69.3837 138.957 66.8056 135.5L61.0634 127.844ZM88.9345 111.594L76.9227 121.594L81.9227 127.844L76.1806 135.5C73.6024 138.957 74.286 143.859 77.7431 146.438C79.1493 147.492 80.7899 148 82.4306 148C84.8134 148 87.1571 146.926 88.6806 144.875L98.0556 132.375C100.184 129.523 100.126 125.578 97.8993 122.805L88.9345 111.594ZM107.567 76.3203C105.087 72.7852 100.224 71.9453 96.6884 74.4062L88.7587 79.9727C78.4657 87.1992 64.5009 87.1992 54.2274 79.9727L46.2977 74.4258C42.7626 71.9453 37.8993 72.8047 35.4188 76.3203C32.9384 79.8555 33.7977 84.7188 37.3134 87.1992L45.2431 92.7656C48.5634 95.0898 52.1571 96.8477 55.8681 98.2148V104.25H87.1181V98.2344C90.829 96.8672 94.4227 95.1094 97.7431 92.7852L105.673 87.2188C109.208 84.7188 110.048 79.8555 107.567 76.3203Z" fill="#FAC300"/>
</svg>
